<svg width="30" height="30" viewBox="0 0 30 30" fill="none" xmlns="http://www.w3.org/2000/svg">
<g clip-path="url(#clip0_470_26268)">
<path d="M13.703 18.3469V25.6556C9.31945 25.1325 5.74787 21.9614 4.63232 17.7864L11.8669 16.7559C12.2674 17.4819 12.9185 18.0479 13.7039 18.3469H13.703Z" stroke="#7FBF9E" stroke-linecap="round" stroke-linejoin="round"/>
<path d="M25.3466 17.8508C24.2091 21.9994 20.654 25.1385 16.2915 25.656V18.3473C17.0495 18.0593 17.685 17.5143 18.0965 16.8203L25.3466 17.8508Z" stroke="#7FBF9E" stroke-linecap="round" stroke-linejoin="round"/>
<path d="M25.7315 15.0003C25.7315 15.0963 25.7315 15.1923 25.7205 15.2883L18.5179 14.2633H18.5124C18.176 12.6293 16.7294 11.4068 14.9994 11.4068C13.2694 11.4068 11.8603 12.5918 11.4973 14.1883L4.26818 15.2134C4.2627 15.1439 4.2627 15.0689 4.2627 14.9994C4.2627 9.07327 9.06778 4.2627 14.9994 4.2627C20.931 4.2627 25.7306 9.07327 25.7306 14.9994L25.7315 15.0003Z" stroke="#7FBF9E" stroke-linecap="round" stroke-linejoin="round"/>
<path d="M13.703 18.3469V25.6556C9.31945 25.1325 5.74787 21.9614 4.63232 17.7864L11.8669 16.7559C12.2674 17.4819 12.9185 18.0479 13.7039 18.3469H13.703Z" stroke="#7FBF9E" stroke-linecap="round" stroke-linejoin="round"/>
<path d="M25.3466 17.8508C24.2091 21.9994 20.654 25.1385 16.2915 25.656V18.3473C17.0495 18.0593 17.685 17.5143 18.0965 16.8203L25.3466 17.8508Z" stroke="#7FBF9E" stroke-linecap="round" stroke-linejoin="round"/>
<path d="M25.7315 15.0003C25.7315 15.0963 25.7315 15.1923 25.7205 15.2883L18.5179 14.2633H18.5124C18.176 12.6293 16.7294 11.4068 14.9994 11.4068C13.2694 11.4068 11.8603 12.5918 11.4973 14.1883L4.26818 15.2134C4.2627 15.1439 4.2627 15.0689 4.2627 14.9994C4.2627 9.07327 9.06778 4.2627 14.9994 4.2627C20.931 4.2627 25.7306 9.07327 25.7306 14.9994L25.7315 15.0003Z" stroke="#7FBF9E" stroke-linecap="round" stroke-linejoin="round"/>
<path d="M15.0005 0.517578C6.99873 0.517578 0.517578 7.0033 0.517578 15.0005C0.517578 22.9977 6.99873 29.4825 14.9996 29.4825C23.0004 29.4825 29.477 22.9968 29.477 15.0005C29.477 7.00421 22.9968 0.517578 15.0005 0.517578ZM25.7207 15.2885L18.5181 14.2635C18.5666 14.504 18.5931 14.749 18.5931 15.0005C18.5931 15.668 18.4111 16.287 18.0966 16.821L25.3467 17.8515C24.2092 22.0001 20.6541 25.1392 16.2916 25.6567V18.3481C15.8911 18.5081 15.4586 18.594 14.9996 18.594C14.5406 18.594 14.1026 18.509 13.7021 18.3481V25.6567C9.31852 25.1337 5.74694 21.9626 4.63139 17.7875L11.866 16.757C11.567 16.2395 11.4015 15.6415 11.4015 15.0005C11.4015 14.7225 11.4335 14.4509 11.4975 14.1894L4.26838 15.2145C4.26289 15.145 4.26289 15.07 4.26289 15.0005C4.26289 9.07438 9.06797 4.26381 14.9996 4.26381C20.9312 4.26381 25.7308 9.07438 25.7308 15.0005C25.7308 15.0965 25.7308 15.1925 25.7198 15.2885H25.7207Z" stroke="#7FBF9E" stroke-linecap="round" stroke-linejoin="round"/>
<path d="M18.5929 15.0003C18.5929 15.6678 18.411 16.2869 18.0964 16.8209C17.6849 17.5149 17.0504 18.0599 16.2914 18.3479C15.8909 18.5079 15.4584 18.5939 14.9994 18.5939C14.5404 18.5939 14.1024 18.5088 13.7019 18.3479C12.9174 18.0489 12.2654 17.4829 11.8649 16.7569C11.5659 16.2393 11.4004 15.6413 11.4004 15.0003C11.4004 14.7224 11.4324 14.4508 11.4964 14.1893C11.8594 12.5928 13.2904 11.4077 14.9985 11.4077C16.7066 11.4077 18.1751 12.6302 18.5115 14.2642H18.517C18.5655 14.5047 18.592 14.7498 18.592 15.0012L18.5929 15.0003Z" stroke="#7FBF9E" stroke-linecap="round" stroke-linejoin="round"/>
</g>
<defs>
<clipPath id="clip0_470_26268">
<rect width="29.9954" height="30" fill="white"/>
</clipPath>
</defs>
</svg>
