<svg width="30" height="30" viewBox="0 0 30 30" fill="none" xmlns="http://www.w3.org/2000/svg">
<g clip-path="url(#clip0_470_26256)">
<path d="M23.8316 23.8319C28.7094 18.9542 28.7094 11.0458 23.8316 6.1681C18.9539 1.29038 11.0456 1.29038 6.16784 6.1681C1.29011 11.0458 1.29011 18.9542 6.16784 23.8319C11.0456 28.7096 18.9539 28.7096 23.8316 23.8319Z" stroke="#7FBF9E" stroke-width="1.32" stroke-linecap="round" stroke-linejoin="round"/>
<path d="M24.1003 6.95417L17.8581 10.013L17.3394 3.08057" stroke="#7FBF9E" stroke-width="1.32" stroke-linecap="round" stroke-linejoin="round"/>
<path d="M26.4663 19.01L20.6655 15.0002L26.4663 10.9912" stroke="#7FBF9E" stroke-width="1.32" stroke-linecap="round" stroke-linejoin="round"/>
<path d="M17.3394 26.9194L17.8581 19.9878L24.1003 23.0458" stroke="#7FBF9E" stroke-width="1.32" stroke-linecap="round" stroke-linejoin="round"/>
<path d="M5.8999 23.0458L12.1429 19.9878L12.6608 26.9194" stroke="#7FBF9E" stroke-width="1.32" stroke-linecap="round" stroke-linejoin="round"/>
<path d="M3.53467 10.9912L9.33456 15.0002L3.53467 19.01" stroke="#7FBF9E" stroke-width="1.32" stroke-linecap="round" stroke-linejoin="round"/>
<path d="M12.6608 3.08057L12.1429 10.013L5.8999 6.95417" stroke="#7FBF9E" stroke-width="1.32" stroke-linecap="round" stroke-linejoin="round"/>
<path d="M17.2761 15.5456C17.5766 14.2892 16.8017 13.027 15.5452 12.7266C14.2888 12.4261 13.0267 13.201 12.7262 14.4575C12.4257 15.7139 13.2007 16.976 14.4571 17.2765C15.7135 17.577 16.9757 16.802 17.2761 15.5456Z" fill="#7FBF9E"/>
<path d="M25.2697 25.2701C30.9418 19.5981 30.9418 10.4019 25.2697 4.72991C19.5977 -0.942104 10.4016 -0.942102 4.72956 4.72991C-0.942452 10.4019 -0.942452 19.5981 4.72956 25.2701C10.4016 30.9421 19.5977 30.9421 25.2697 25.2701Z" stroke="#7FBF9E" stroke-width="1.32" stroke-linecap="round" stroke-linejoin="round"/>
</g>
<defs>
<clipPath id="clip0_470_26256">
<rect width="30" height="30" fill="white"/>
</clipPath>
</defs>
</svg>
