<svg width="90" height="39" viewBox="0 0 90 39" fill="none" xmlns="http://www.w3.org/2000/svg">
<path d="M40.7617 14.3623H36.1328C35.2774 14.3623 34.5859 15.0576 34.5859 15.9092V16.5225C34.5859 17.378 35.2812 18.0694 36.1328 18.0694H40.7617C41.6172 18.0694 42.3086 17.3741 42.3086 16.5225V15.9092C42.3086 15.0537 41.6133 14.3623 40.7617 14.3623ZM40.836 16.5264C40.836 16.5655 40.8047 16.6006 40.7617 16.6006H36.1328C36.0938 16.6006 36.0586 16.5694 36.0586 16.5264V15.9131C36.0586 15.8741 36.0899 15.8389 36.1328 15.8389H40.7617C40.8008 15.8389 40.836 15.8702 40.836 15.9131V16.5264Z" fill="#E76F51"/>
<path d="M22.5049 22.9365C19.0322 22.9365 16.208 25.7607 16.208 29.2334C16.208 29.5811 16.2393 29.9326 16.2979 30.2803C16.8018 33.3194 19.4151 35.5264 22.5049 35.5264C25.5947 35.5264 28.2041 33.3194 28.708 30.2842C28.7665 29.9366 28.7978 29.585 28.7978 29.2334C28.7978 25.7607 25.9737 22.9365 22.5049 22.9365ZM27.2549 30.0381C26.8682 32.3623 24.8721 34.0498 22.5088 34.0498C20.1416 34.0498 18.1416 32.3623 17.7549 30.0342C17.708 29.7686 17.6885 29.4991 17.6885 29.2334C17.6885 26.5772 19.8526 24.4131 22.5088 24.4131C25.165 24.4131 27.3252 26.5772 27.3252 29.2334C27.3252 29.503 27.3018 29.7686 27.2588 30.0381L27.2549 30.0381Z" fill="#E76F51"/>
<path d="M71.3599 22.9365C67.8911 22.9365 65.0669 25.7607 65.0669 29.2334C65.0669 29.585 65.0981 29.9365 65.1567 30.2803C65.6606 33.3194 68.27 35.5264 71.3598 35.5264C74.4496 35.5264 77.0629 33.3194 77.5668 30.2842C77.6254 29.9366 77.6567 29.5811 77.6567 29.2373C77.6567 25.7646 74.8325 22.9404 71.3598 22.9404L71.3599 22.9365ZM76.1138 30.0381C75.7271 32.3623 73.7271 34.0498 71.3599 34.0498C68.9966 34.0498 67.0005 32.3623 66.6138 30.0342C66.5708 29.7686 66.5474 29.503 66.5474 29.2334C66.5474 26.5772 68.7076 24.4131 71.3638 24.4131C74.024 24.4131 76.1841 26.5772 76.1841 29.2334C76.1841 29.4991 76.1607 29.7686 76.1177 30.0381L76.1138 30.0381Z" fill="#E76F51"/>
<path d="M89.141 25.6866V22.9757C89.141 20.5968 88.6449 18.8937 88.2152 17.671C87.6879 16.1749 86.4925 15.0069 85.0199 14.5421C78.309 12.4327 63.9379 11.8624 61.4109 11.7843L53.7429 0.800287C53.1648 -0.035653 51.9148 -0.254414 51.0945 0.323726C50.6765 0.616696 50.3953 1.05029 50.3093 1.55423C50.2195 2.05423 50.3328 2.55813 50.6218 2.97613L56.7625 11.773H51.2781L52.5476 8.68323C52.7546 8.17932 52.5124 7.60513 52.0124 7.39803C51.5085 7.191 50.9343 7.43318 50.7272 7.93319L49.153 11.7691H37.965L36.3556 5.52689C36.2072 4.95658 35.7384 4.51909 35.1564 4.41359L34.1212 4.23C33.5548 4.13234 32.965 4.36281 32.6251 4.83547L32.3907 5.16359C32.2032 5.4214 32.1056 5.73 32.1056 6.05031V11.773H31.5235V11.3707C31.5235 10.6363 31.0235 10.0113 30.3047 9.84727L19.3437 7.40197C18.3437 7.17541 17.3007 7.55822 16.6796 8.36681L15.6601 9.68711C15.3515 10.0894 15.1797 10.5894 15.1797 11.0933V11.1792L9.23435 12.7769C7.90625 13.1363 6.69525 13.7964 5.67965 14.6831L5.6445 14.6597L5.207 15.0972C5.10153 15.2027 5.01169 15.3238 4.91012 15.437C4.49606 15.898 4.11715 16.3902 3.81242 16.9253C3.07023 18.2378 2.44912 19.7378 1.97652 21.3823L1.78902 22.0269H1.79292C1.55854 22.9292 1.47651 23.691 1.42183 24.273C1.41793 24.3316 1.41011 24.3706 1.4023 24.4292H1.2773C0.57418 24.4292 0 25.0034 0 25.7104V28.9096C0 29.6128 0.57422 30.1869 1.2773 30.1869H4.25C4.41016 30.1869 4.56641 30.1479 4.71094 30.0932C5.61328 30.6127 6.62504 30.9018 7.67974 30.9018H13.6641C14.4532 35.1323 18.1407 38.2495 22.5157 38.2495C26.8868 38.2495 30.5782 35.1362 31.3673 30.9018H62.5193C63.3084 35.1323 66.9959 38.2495 71.3709 38.2495C75.742 38.2495 79.4334 35.1362 80.2225 30.9018H81.7147C82.664 30.9018 83.6131 30.7924 84.5389 30.5775L84.8397 30.5072C85.0702 30.7494 85.3944 30.9018 85.7538 30.9018H88.7265C89.1483 30.9018 89.5273 30.7065 89.7577 30.3744C89.9139 30.1596 90.0038 29.894 90.0038 29.6244V26.8861C90.0038 26.3314 89.6444 25.8705 89.1522 25.6908L89.141 25.6866ZM86.8832 18.3272C87.2465 19.3819 87.598 20.6905 87.6566 22.4717L87.1801 22.3506C86.7074 22.2295 86.3168 22.085 85.9848 21.9053C85.3988 21.5928 84.9536 21.2022 84.7895 20.8662L83.8793 18.9873C83.7817 18.7803 83.8637 18.6084 83.9027 18.5459C83.9418 18.4834 84.0629 18.331 84.2895 18.331H86.8833L86.8832 18.3272ZM51.8322 2.13218C51.7658 2.03843 51.7423 1.92516 51.7619 1.81188C51.7814 1.6986 51.8439 1.60094 51.9416 1.53454C52.1291 1.40173 52.3986 1.45641 52.5314 1.64391L59.6017 11.7769H58.5587L51.8321 2.13632L51.8322 2.13218ZM33.5822 6.02669L33.8556 5.68685L34.922 5.90169L36.4376 11.7728H33.5743L33.5822 6.02669ZM16.8202 10.5853L17.8397 9.26499C18.1131 8.90952 18.578 8.74154 19.0155 8.8392L29.9765 11.2884C30.0116 11.2962 30.039 11.3314 30.039 11.3704V11.7728H18.164L16.6445 11.2259V11.0931C16.6445 10.9095 16.707 10.7298 16.8164 10.5853L16.8202 10.5853ZM4.46819 18.9056C4.66741 18.472 4.86663 18.0423 5.09319 17.6478C5.27288 17.3275 5.48772 17.0267 5.71819 16.7415C5.74163 16.7142 5.76897 16.6868 5.79241 16.6595C6.21038 17.14 6.44866 17.7611 6.44866 18.4173C6.44866 19.9564 5.12446 21.1868 3.64006 21.0579C3.88615 20.3431 4.15568 19.6204 4.47209 18.9056L4.46819 18.9056ZM1.46819 25.9017H4.04239V28.7064H1.46819V25.9017ZM22.5032 36.7687C18.6594 36.7687 15.4407 33.8937 15.0149 30.0812C14.9836 29.8038 14.968 29.5226 14.968 29.2335C14.968 25.0773 18.3469 21.6983 22.5032 21.6983C26.6595 21.6983 30.0384 25.0772 30.0384 29.2335C30.0384 29.5226 30.0228 29.8038 29.9915 30.0773C29.5658 33.8937 26.347 36.7687 22.5032 36.7687ZM71.3582 36.7687C67.5144 36.7687 64.2957 33.8937 63.8699 30.0812C63.8386 29.8038 63.823 29.5226 63.823 29.2335C63.823 25.0773 67.2019 21.6983 71.3582 21.6983C75.5145 21.6983 78.8934 25.0772 78.8934 29.2335C78.8934 29.5226 78.8778 29.8038 78.8465 30.0773C78.4208 33.8937 75.202 36.7687 71.3582 36.7687ZM84.4672 26.882V29.0734L84.1938 29.1359C83.3773 29.3273 82.5415 29.421 81.7055 29.421H80.3696V29.2335C80.3696 24.2647 76.3266 20.2218 71.3579 20.2218C66.3892 20.2218 62.3462 24.2648 62.3462 29.2335V29.421H31.5062V29.2335C31.5062 24.2647 27.4632 20.2218 22.4945 20.2218C17.5258 20.2218 13.4828 24.2648 13.4828 29.2335V29.421H7.65855C6.90074 29.421 6.16635 29.2335 5.50625 28.8742V25.7062C5.50625 25.2882 5.29141 24.9366 4.97891 24.7023C4.76407 24.5421 4.51407 24.4288 4.22891 24.4288H2.86951V24.4171C2.92029 23.8819 2.9867 23.2374 3.1742 22.4874C3.39295 22.5226 3.6117 22.5499 3.83436 22.5499C6.07656 22.5499 7.90466 20.6983 7.90466 18.421C7.90466 17.3702 7.51013 16.378 6.82266 15.6241C7.63125 14.9718 8.57266 14.4835 9.59606 14.2061L15.8656 12.5225L17.8929 13.2569H61.0179C61.1897 13.2569 77.4009 13.7061 84.5609 15.96C85.1077 16.1319 85.5921 16.4483 85.9906 16.8584H84.2758C83.6078 16.8584 82.9946 17.1983 82.6391 17.7647C82.2836 18.3311 82.2445 19.0303 82.5375 19.6319L83.4477 21.5108C83.7524 22.1397 84.4008 22.7413 85.2758 23.21C85.7133 23.4444 86.2094 23.6319 86.7992 23.7842L87.6546 24.0029V25.6045H85.7327C85.0296 25.6045 84.4554 26.1788 84.4554 26.8857L84.4672 26.882ZM88.518 29.4211H85.9438V27.0773H88.518V29.4211Z" fill="#E76F51"/>
</svg>
