<svg width="92" height="40" viewBox="0 0 92 40" fill="none" xmlns="http://www.w3.org/2000/svg">
<path fill-rule="evenodd" clip-rule="evenodd" d="M77.3105 25.6176C76.0136 24.3207 74.2207 23.5199 72.2402 23.5199C70.2597 23.5199 68.4668 24.3206 67.1699 25.6176C65.873 26.9145 65.0722 28.7074 65.0722 30.6879C65.0722 32.6684 65.8729 34.4574 67.1699 35.7582C68.4668 37.0551 70.2597 37.8559 72.2402 37.8559C74.2207 37.8559 76.0136 37.0551 77.3105 35.7582C78.6074 34.4612 79.4082 32.6684 79.4082 30.6879C79.4082 28.7074 78.6074 26.9145 77.3105 25.6176ZM74.3769 28.5551C74.9237 29.1019 75.2597 29.8559 75.2597 30.6879C75.2597 31.5199 74.9198 32.2777 74.3769 32.8207C73.83 33.3675 73.0761 33.7035 72.2441 33.7035C71.412 33.7035 70.6543 33.3636 70.1113 32.8207C69.5644 32.2738 69.2284 31.5199 69.2284 30.6879C69.2284 29.8558 69.5683 29.0981 70.1113 28.5551C70.6581 28.0082 71.4121 27.6723 72.2441 27.6723C73.0761 27.6723 73.8339 28.0121 74.3769 28.5551ZM72.2441 25.9457C73.5527 25.9457 74.7363 26.4769 75.5957 27.3363C76.4551 28.1956 76.9863 29.3793 76.9863 30.6879C76.9863 31.9965 76.455 33.1801 75.5957 34.0395C74.7363 34.8989 73.5527 35.4301 72.2441 35.4301C70.9355 35.4301 69.7519 34.8988 68.8925 34.0395C68.0331 33.1801 67.5019 31.9965 67.5019 30.6879C67.5019 29.3793 68.0331 28.1957 68.8925 27.3363C69.7518 26.4769 70.9355 25.9457 72.2441 25.9457ZM23.6271 25.6175C22.3302 24.3207 20.5373 23.5199 18.5568 23.5199C16.5763 23.5199 14.7834 24.3206 13.4865 25.6175C12.1896 26.9145 11.3888 28.7074 11.3888 30.6879C11.3888 32.6684 12.1895 34.4574 13.4865 35.7582C14.7834 37.0551 16.5763 37.8558 18.5568 37.8558C20.5373 37.8558 22.3302 37.0551 23.6271 35.7582C24.924 34.4612 25.7248 32.6684 25.7248 30.6879C25.7248 28.7074 24.924 26.9144 23.6271 25.6175ZM20.6896 28.555C21.2364 29.1019 21.5724 29.8559 21.5724 30.6879C21.5724 31.5199 21.2325 32.2776 20.6896 32.8206C20.1427 33.3675 19.3888 33.7035 18.5568 33.7035C17.7247 33.7035 16.967 33.3636 16.424 32.8206C15.8771 32.2738 15.5411 31.5199 15.5411 30.6879C15.5411 29.8558 15.881 29.098 16.424 28.555C16.9708 28.0082 17.7248 27.6722 18.5568 27.6722C19.3888 27.6722 20.1466 28.0121 20.6896 28.555ZM18.5568 25.9456C19.8654 25.9456 21.049 26.4769 21.9084 27.3363C22.7678 28.1956 23.299 29.3793 23.299 30.6879C23.299 31.9965 22.7677 33.18 21.9084 34.0394C21.049 34.8988 19.8654 35.43 18.5568 35.43C17.2482 35.43 16.0646 34.8988 15.2052 34.0394C14.3458 33.1801 13.8146 31.9965 13.8146 30.6879C13.8146 29.3793 14.3458 28.1957 15.2052 27.3363C16.0645 26.4769 17.2482 25.9456 18.5568 25.9456ZM2.81075 21.9379V15.6762C2.81075 15.5512 2.8381 15.434 2.88497 15.3285L7.70527 2.73049C8.02558 1.89455 8.56855 1.21489 9.25997 0.742189C9.95138 0.265629 10.7834 0 11.6741 0H51.0961C52.3695 0 53.5649 0.23047 54.6703 0.6875C55.7797 1.14844 56.7875 1.8281 57.6898 2.7305L67.5336 12.5743H80.0216C80.0724 12.5743 80.1231 12.5782 80.17 12.586L80.1856 12.5899C81.9864 12.7891 84.3926 13.5079 86.2715 15.0587C88.0684 16.5431 89.3809 18.7618 89.2481 21.9571C89.6153 22.0938 89.9474 22.3048 90.2208 22.5782C90.7052 23.0626 91.0021 23.7305 91.0021 24.4649V27.8477C91.0021 29.5118 90.3224 31.0274 89.2247 32.1211C88.127 33.2188 86.6153 33.8984 84.9513 33.8984H80.5372C80.088 35.0625 79.3967 36.1093 78.5294 36.9726C76.9201 38.582 74.6974 39.5781 72.2403 39.5781C69.7832 39.5781 67.5606 38.582 65.9512 36.9726C65.0841 36.1054 64.3965 35.0624 63.9434 33.8984H26.8534C26.4042 35.0625 25.7128 36.1093 24.8456 36.9726C23.2362 38.582 21.0136 39.5781 18.5565 39.5781C16.0995 39.5781 13.8768 38.582 12.2674 36.9726C11.4003 36.1054 10.7127 35.0624 10.2596 33.8984H7.04875C5.38465 33.8984 3.86905 33.2187 2.77535 32.1211C1.67765 31.0234 0.998047 29.5117 0.998047 27.8477V24.4649C0.998047 23.7305 1.29883 23.0626 1.7793 22.5782C2.06446 22.2931 2.41211 22.0704 2.8027 21.9376L2.81075 21.9379ZM88.7988 29.8167H81.0918C81.1191 30.1019 81.1347 30.3949 81.1347 30.6878C81.1347 31.1957 81.0918 31.6917 81.0097 32.1761H84.9472C86.1347 32.1761 87.2167 31.6879 88.0019 30.9027C88.3183 30.5863 88.5879 30.2192 88.7949 29.8168L88.7988 29.8167ZM63.3927 29.8167H27.4088C27.4361 30.1019 27.4517 30.3949 27.4517 30.6878C27.4517 31.1957 27.4088 31.6917 27.3267 32.1761H63.4747C63.3927 31.6918 63.3497 31.1957 63.3497 30.6878C63.3497 30.3949 63.3654 30.1019 63.3927 29.8167ZM9.70875 29.8167H3.20485C3.41188 30.2191 3.68141 30.5863 3.99782 30.9026C4.78298 31.6878 5.86502 32.176 7.05252 32.176H9.78692C9.70489 31.6917 9.66192 31.1956 9.66192 30.6877C9.66192 30.3948 9.67755 30.1018 9.70489 29.8167L9.70875 29.8167ZM86.8068 18.3867H83.9201V20.0899C83.9201 20.5586 84.1115 20.9844 84.4201 21.2929C84.7287 21.6015 85.1544 21.7929 85.6232 21.7929H87.5294C87.5684 20.4413 87.2911 19.3163 86.8068 18.3867ZM4.53375 20.2851H6.40095C6.46345 20.2851 6.54157 20.2187 6.6197 20.1094C6.75642 19.9102 6.84626 19.6211 6.84626 19.2891V18.293H4.53766V20.2852L4.53375 20.2851ZM4.53375 16.5663V15.8359L9.31495 3.34788C9.50636 2.84397 9.83057 2.43772 10.2368 2.16038C10.6392 1.88304 11.1353 1.72679 11.6743 1.72679H51.0963C52.151 1.72679 53.1275 1.91038 54.0182 2.28148C54.905 2.64867 55.7252 3.20726 56.4713 3.95338L66.5653 14.0474C66.7333 14.2153 66.956 14.3013 67.1747 14.3013H79.9987C81.5417 14.4732 83.5925 15.0825 85.1745 16.3872C85.2839 16.477 85.3894 16.5708 85.4909 16.6645H83.0612C82.5847 16.6645 82.1979 17.0512 82.1979 17.5278V20.0942C82.1979 21.0395 82.5847 21.895 83.2057 22.5161C83.8268 23.1372 84.6824 23.5239 85.6276 23.5239H88.3346C88.5925 23.5239 88.8307 23.6294 89.0026 23.8013C89.1745 23.9731 89.28 24.2075 89.28 24.4692V27.852C89.28 27.9341 89.276 28.0161 89.2721 28.0981H80.7526C80.323 26.6879 79.5495 25.4223 78.5338 24.4067C76.9244 22.7973 74.7018 21.8012 72.2447 21.8012C69.7877 21.8012 67.565 22.7973 65.9556 24.4067C64.9361 25.4262 64.1665 26.6879 63.7368 28.0981L27.0648 28.0903C26.6352 26.6801 25.8617 25.4145 24.846 24.3989C23.2366 22.7895 21.014 21.7934 18.5569 21.7934C16.0999 21.7934 13.8772 22.7895 12.2678 24.3989C11.2483 25.4184 10.4787 26.6801 10.049 28.0903H2.73264C2.72873 28.0083 2.72483 27.9262 2.72483 27.8442V24.4614C2.72483 24.2036 2.8303 23.9653 3.00217 23.7934C3.17404 23.6216 3.40842 23.5161 3.67014 23.5161C4.1467 23.5161 4.53342 23.1294 4.53342 22.6528V22.0044H6.40062C7.05687 22.0044 7.62722 21.6528 8.02562 21.0864C8.36156 20.6098 8.56468 19.9692 8.56468 19.2817V17.4223C8.56468 16.9457 8.17796 16.559 7.7014 16.559H4.5295L4.53375 16.5663ZM27.0538 20.1483H30.839C31.3155 20.1483 31.7022 19.7616 31.7022 19.2851C31.7022 18.8085 31.3155 18.4218 30.839 18.4218H27.0538C26.5772 18.4218 26.1905 18.8085 26.1905 19.2851C26.1905 19.7616 26.5772 20.1483 27.0538 20.1483ZM44.1128 20.1483H47.898C48.3745 20.1483 48.7612 19.7616 48.7612 19.2851C48.7612 18.8085 48.3745 18.4218 47.898 18.4218H44.1128C43.6362 18.4218 43.2495 18.8085 43.2495 19.2851C43.2495 19.7616 43.6362 20.1483 44.1128 20.1483ZM43.2495 14.5038C43.2495 14.9804 43.6362 15.3671 44.1128 15.3671H62.3748C62.8513 15.3671 63.238 14.9804 63.238 14.5038C63.238 14.2421 63.1208 14.0078 62.9373 13.8515L54.3787 5.25771C53.7224 4.59755 52.9881 4.10151 52.1834 3.76941C51.3748 3.43347 50.5037 3.2655 49.5779 3.2655H44.1091C43.6325 3.2655 43.2458 3.65222 43.2458 4.12878V14.5038L43.2495 14.5038ZM44.9722 4.98825V13.6405H60.3002L53.1596 6.46865C52.6674 5.97256 52.1205 5.60146 51.5307 5.35535C50.9369 5.10926 50.2885 4.98816 49.5776 4.98816L44.9722 4.98825ZM25.1522 4.34763C25.1717 4.27732 25.1795 4.2031 25.1795 4.12497C25.1795 3.64841 24.7928 3.26169 24.3162 3.26169H16.1287C15.453 3.26169 14.8201 3.46481 14.2928 3.8281C13.7655 4.19138 13.3514 4.70701 13.1092 5.3398L9.72254 14.1914C9.55457 14.6367 9.77722 15.1328 10.2186 15.3008C10.3202 15.3399 10.4217 15.3594 10.5233 15.3594H22.0703C22.4961 15.3594 22.8516 15.0508 22.9219 14.6406L25.1524 4.34364L25.1522 4.34763ZM21.3788 13.6406L23.2499 4.98833H16.1288C15.8046 4.98833 15.5077 5.08208 15.2694 5.24614C15.0272 5.4102 14.8358 5.6563 14.7186 5.95708L11.7772 13.6407L21.3788 13.6406ZM24.9804 14.2813C24.9608 14.3516 24.953 14.4258 24.953 14.5039C24.953 14.9805 25.3398 15.3672 25.8163 15.3672H40.4643C40.9409 15.3672 41.3276 14.9805 41.3276 14.5039V4.12892C41.3276 3.65236 40.9409 3.26564 40.4643 3.26564H28.0663C27.6405 3.26564 27.2851 3.57423 27.2148 3.98439L24.9843 14.2814L24.9804 14.2813ZM28.7538 4.98826L26.8827 13.6406H39.6017V4.98826H28.7538ZM18.5588 29.5863C19.1681 29.5863 19.6604 30.0784 19.6604 30.6879C19.6604 31.2972 19.1682 31.7895 18.5588 31.7895C17.9494 31.7895 17.4572 31.2973 17.4572 30.6879C17.4572 30.0785 17.9494 29.5863 18.5588 29.5863ZM72.2468 29.5863C72.8561 29.5863 73.3484 30.0784 73.3484 30.6879C73.3484 31.2972 72.8562 31.7895 72.2468 31.7895C71.6374 31.7895 71.1452 31.2973 71.1452 30.6879C71.1452 30.0785 71.6374 29.5863 72.2468 29.5863Z" fill="#34C759"/>
</svg>
