<svg width="33" height="33" viewBox="0 0 33 33" fill="none" xmlns="http://www.w3.org/2000/svg">
<path d="M7.68112 22.6069L14.2423 22.6208C14.0685 22.1389 13.9671 21.6244 13.9671 21.0822C13.9671 18.5147 16.1349 16.4292 18.8144 16.4292C21.494 16.4292 23.6617 18.5101 23.6617 21.0822C23.6617 21.6244 23.5603 22.1435 23.3817 22.6301H28.1566C29.6774 20.7068 28.2241 16.3504 28.2241 16.3504C27.5965 15.5672 26.6985 14.9508 25.6798 14.4642C21.8657 12.6521 16.2942 12.6753 16.2942 12.6753C13.803 10.84 10.8531 9.34309 9.09089 8.51815C8.1446 8.07788 7.53628 7.82298 7.53628 7.82298C5.75476 7.0861 3.45664 6.83584 1.82479 6.75706C4.88572 2.66945 9.8875 0 15.5411 0C24.8735 0 32.439 7.26221 32.439 16.2206C32.439 25.1791 24.8735 32.4413 15.5411 32.4413C8.56464 32.4413 2.57795 28.3815 -0.00018692 22.593L7.68112 22.6069ZM18.8144 17.7176C16.8784 17.7176 15.3093 19.2238 15.3093 21.0776C15.3093 22.9314 16.8784 24.4376 18.8144 24.4376C20.7504 24.4376 22.3147 22.9314 22.3147 21.0776C22.3147 19.2238 20.7456 17.7176 18.8144 17.7176Z" fill="#E76F51"/>
</svg>
